<mxfile host="app.diagrams.net" agent="Mozilla/5.0 (Windows NT 10.0; Win64; x64) AppleWebKit/537.36 (KHTML, like Gecko) Chrome/132.0.0.0 Safari/537.36" version="26.0.10">
  <diagram name="Seite-1" id="Rl33mOxUc9cALqoj1EF1">
    <mxGraphModel dx="1035" dy="511" grid="0" gridSize="10" guides="1" tooltips="1" connect="1" arrows="1" fold="1" page="1" pageScale="1" pageWidth="827" pageHeight="1169" math="0" shadow="0">
      <root>
        <mxCell id="0" />
        <mxCell id="1" parent="0" />
        <mxCell id="2AvNJERpaBlEJEYipWg1-46" value="" style="whiteSpace=wrap;html=1;aspect=fixed;" vertex="1" parent="1">
          <mxGeometry x="116" y="221" width="649" height="649" as="geometry" />
        </mxCell>
        <object label="Kunde" id="tYdeZb5N9zNz2dSGvNiS-1">
          <mxCell style="shape=umlActor;verticalLabelPosition=bottom;verticalAlign=top;html=1;outlineConnect=0;" vertex="1" parent="1">
            <mxGeometry x="60" y="270" width="30" height="60" as="geometry" />
          </mxCell>
        </object>
        <mxCell id="tYdeZb5N9zNz2dSGvNiS-3" value="Admin" style="shape=umlActor;verticalLabelPosition=bottom;verticalAlign=top;html=1;outlineConnect=0;" vertex="1" parent="1">
          <mxGeometry x="60" y="560" width="30" height="60" as="geometry" />
        </mxCell>
        <mxCell id="2AvNJERpaBlEJEYipWg1-2" value="" style="endArrow=classic;html=1;rounded=0;entryX=0;entryY=0.5;entryDx=0;entryDy=0;" edge="1" parent="1" target="2AvNJERpaBlEJEYipWg1-3">
          <mxGeometry width="50" height="50" relative="1" as="geometry">
            <mxPoint x="90" y="300" as="sourcePoint" />
            <mxPoint x="240" y="270" as="targetPoint" />
          </mxGeometry>
        </mxCell>
        <mxCell id="2AvNJERpaBlEJEYipWg1-3" value="Konto erstellen" style="ellipse;whiteSpace=wrap;html=1;" vertex="1" parent="1">
          <mxGeometry x="259" y="241" width="140" height="40" as="geometry" />
        </mxCell>
        <mxCell id="2AvNJERpaBlEJEYipWg1-4" value="" style="endArrow=classic;html=1;rounded=0;entryX=0;entryY=0.5;entryDx=0;entryDy=0;" edge="1" parent="1" target="2AvNJERpaBlEJEYipWg1-5">
          <mxGeometry width="50" height="50" relative="1" as="geometry">
            <mxPoint x="90" y="300" as="sourcePoint" />
            <mxPoint x="240" y="320" as="targetPoint" />
          </mxGeometry>
        </mxCell>
        <mxCell id="2AvNJERpaBlEJEYipWg1-5" value="Essen bestellen" style="ellipse;whiteSpace=wrap;html=1;" vertex="1" parent="1">
          <mxGeometry x="259" y="286" width="140" height="40" as="geometry" />
        </mxCell>
        <mxCell id="2AvNJERpaBlEJEYipWg1-6" value="" style="endArrow=classic;html=1;rounded=0;entryX=0;entryY=0.5;entryDx=0;entryDy=0;" edge="1" parent="1" target="2AvNJERpaBlEJEYipWg1-7">
          <mxGeometry width="50" height="50" relative="1" as="geometry">
            <mxPoint x="90" y="300" as="sourcePoint" />
            <mxPoint x="250" y="420" as="targetPoint" />
          </mxGeometry>
        </mxCell>
        <mxCell id="2AvNJERpaBlEJEYipWg1-7" value="Produkte anzeigen" style="ellipse;whiteSpace=wrap;html=1;" vertex="1" parent="1">
          <mxGeometry x="259" y="382" width="140" height="40" as="geometry" />
        </mxCell>
        <mxCell id="2AvNJERpaBlEJEYipWg1-8" value="" style="endArrow=classic;html=1;rounded=0;entryX=0;entryY=0.5;entryDx=0;entryDy=0;" edge="1" parent="1" target="2AvNJERpaBlEJEYipWg1-9">
          <mxGeometry width="50" height="50" relative="1" as="geometry">
            <mxPoint x="90" y="300" as="sourcePoint" />
            <mxPoint x="260" y="430" as="targetPoint" />
          </mxGeometry>
        </mxCell>
        <mxCell id="2AvNJERpaBlEJEYipWg1-9" value="Bilder hochladen" style="ellipse;whiteSpace=wrap;html=1;" vertex="1" parent="1">
          <mxGeometry x="259" y="426" width="140" height="40" as="geometry" />
        </mxCell>
        <mxCell id="2AvNJERpaBlEJEYipWg1-10" value="" style="endArrow=classic;html=1;rounded=0;entryX=0;entryY=0.5;entryDx=0;entryDy=0;" edge="1" parent="1" target="2AvNJERpaBlEJEYipWg1-11">
          <mxGeometry width="50" height="50" relative="1" as="geometry">
            <mxPoint x="90" y="300" as="sourcePoint" />
            <mxPoint x="261" y="473" as="targetPoint" />
          </mxGeometry>
        </mxCell>
        <mxCell id="2AvNJERpaBlEJEYipWg1-11" value="Freigegebene Bilder bewerten" style="ellipse;whiteSpace=wrap;html=1;" vertex="1" parent="1">
          <mxGeometry x="260" y="469" width="140" height="51" as="geometry" />
        </mxCell>
        <mxCell id="2AvNJERpaBlEJEYipWg1-13" value="Anmelden" style="ellipse;whiteSpace=wrap;html=1;" vertex="1" parent="1">
          <mxGeometry x="582" y="509" width="142" height="51" as="geometry" />
        </mxCell>
        <mxCell id="2AvNJERpaBlEJEYipWg1-18" value="&amp;lt;&amp;lt;include&amp;gt;&amp;gt;" style="endArrow=open;endSize=12;dashed=1;html=1;rounded=0;exitX=1;exitY=0.5;exitDx=0;exitDy=0;entryX=0.718;entryY=0.078;entryDx=0;entryDy=0;entryPerimeter=0;" edge="1" parent="1" source="2AvNJERpaBlEJEYipWg1-5" target="2AvNJERpaBlEJEYipWg1-13">
          <mxGeometry width="160" relative="1" as="geometry">
            <mxPoint x="440" y="460" as="sourcePoint" />
            <mxPoint x="600" y="460" as="targetPoint" />
          </mxGeometry>
        </mxCell>
        <mxCell id="2AvNJERpaBlEJEYipWg1-19" value="&amp;lt;&amp;lt;include&amp;gt;&amp;gt;" style="endArrow=open;endSize=12;dashed=1;html=1;rounded=0;exitX=1.007;exitY=0.675;exitDx=0;exitDy=0;entryX=0.338;entryY=0.02;entryDx=0;entryDy=0;entryPerimeter=0;exitPerimeter=0;" edge="1" parent="1" target="2AvNJERpaBlEJEYipWg1-13">
          <mxGeometry width="160" relative="1" as="geometry">
            <mxPoint x="399.98" y="407" as="sourcePoint" />
            <mxPoint x="669" y="561" as="targetPoint" />
          </mxGeometry>
        </mxCell>
        <mxCell id="2AvNJERpaBlEJEYipWg1-20" value="&amp;lt;&amp;lt;include&amp;gt;&amp;gt;" style="endArrow=open;endSize=12;dashed=1;html=1;rounded=0;exitX=1;exitY=0.5;exitDx=0;exitDy=0;" edge="1" parent="1" source="2AvNJERpaBlEJEYipWg1-9" target="2AvNJERpaBlEJEYipWg1-13">
          <mxGeometry width="160" relative="1" as="geometry">
            <mxPoint x="377.98" y="407" as="sourcePoint" />
            <mxPoint x="647" y="561" as="targetPoint" />
          </mxGeometry>
        </mxCell>
        <mxCell id="2AvNJERpaBlEJEYipWg1-21" value="&amp;lt;&amp;lt;include&amp;gt;&amp;gt;" style="endArrow=open;endSize=12;dashed=1;html=1;rounded=0;exitX=1;exitY=0.5;exitDx=0;exitDy=0;entryX=0.056;entryY=0.412;entryDx=0;entryDy=0;entryPerimeter=0;" edge="1" parent="1" source="2AvNJERpaBlEJEYipWg1-11" target="2AvNJERpaBlEJEYipWg1-13">
          <mxGeometry width="160" relative="1" as="geometry">
            <mxPoint x="379" y="447" as="sourcePoint" />
            <mxPoint x="627" y="562" as="targetPoint" />
          </mxGeometry>
        </mxCell>
        <mxCell id="2AvNJERpaBlEJEYipWg1-22" value="" style="endArrow=classic;html=1;rounded=0;entryX=0.014;entryY=0.667;entryDx=0;entryDy=0;entryPerimeter=0;" edge="1" parent="1" target="2AvNJERpaBlEJEYipWg1-13">
          <mxGeometry width="50" height="50" relative="1" as="geometry">
            <mxPoint x="90" y="570.527027027027" as="sourcePoint" />
            <mxPoint x="260" y="576.5" as="targetPoint" />
          </mxGeometry>
        </mxCell>
        <mxCell id="2AvNJERpaBlEJEYipWg1-23" value="Bilder freigeben" style="ellipse;whiteSpace=wrap;html=1;" vertex="1" parent="1">
          <mxGeometry x="260" y="571" width="140" height="51" as="geometry" />
        </mxCell>
        <mxCell id="2AvNJERpaBlEJEYipWg1-24" value="" style="endArrow=classic;html=1;rounded=0;entryX=0;entryY=0.5;entryDx=0;entryDy=0;" edge="1" parent="1" target="2AvNJERpaBlEJEYipWg1-23">
          <mxGeometry width="50" height="50" relative="1" as="geometry">
            <mxPoint x="90" y="570" as="sourcePoint" />
            <mxPoint x="270" y="615" as="targetPoint" />
          </mxGeometry>
        </mxCell>
        <mxCell id="2AvNJERpaBlEJEYipWg1-27" value="" style="endArrow=classic;html=1;rounded=0;entryX=0;entryY=0.5;entryDx=0;entryDy=0;" edge="1" parent="1" target="2AvNJERpaBlEJEYipWg1-28">
          <mxGeometry width="50" height="50" relative="1" as="geometry">
            <mxPoint x="90" y="300" as="sourcePoint" />
            <mxPoint x="250" y="370" as="targetPoint" />
          </mxGeometry>
        </mxCell>
        <mxCell id="2AvNJERpaBlEJEYipWg1-28" value="MenÃ¼ anzeigen" style="ellipse;whiteSpace=wrap;html=1;" vertex="1" parent="1">
          <mxGeometry x="259" y="332" width="140" height="40" as="geometry" />
        </mxCell>
        <mxCell id="2AvNJERpaBlEJEYipWg1-30" style="edgeStyle=orthogonalEdgeStyle;rounded=0;orthogonalLoop=1;jettySize=auto;html=1;exitX=0.5;exitY=1;exitDx=0;exitDy=0;entryX=0.55;entryY=0.9;entryDx=0;entryDy=0;entryPerimeter=0;" edge="1" parent="1" source="2AvNJERpaBlEJEYipWg1-28" target="2AvNJERpaBlEJEYipWg1-28">
          <mxGeometry relative="1" as="geometry" />
        </mxCell>
        <mxCell id="2AvNJERpaBlEJEYipWg1-31" value="&amp;lt;&amp;lt;include&amp;gt;&amp;gt;" style="endArrow=open;endSize=12;dashed=1;html=1;rounded=0;exitX=1;exitY=0.5;exitDx=0;exitDy=0;entryX=0.5;entryY=0;entryDx=0;entryDy=0;" edge="1" parent="1" source="2AvNJERpaBlEJEYipWg1-28" target="2AvNJERpaBlEJEYipWg1-13">
          <mxGeometry width="160" relative="1" as="geometry">
            <mxPoint x="409.98" y="417" as="sourcePoint" />
            <mxPoint x="679" y="571" as="targetPoint" />
          </mxGeometry>
        </mxCell>
        <mxCell id="2AvNJERpaBlEJEYipWg1-32" value="Datenbank auswerten" style="ellipse;whiteSpace=wrap;html=1;" vertex="1" parent="1">
          <mxGeometry x="260" y="629" width="140" height="51" as="geometry" />
        </mxCell>
        <mxCell id="2AvNJERpaBlEJEYipWg1-33" value="" style="endArrow=classic;html=1;rounded=0;entryX=0;entryY=0.5;entryDx=0;entryDy=0;" edge="1" parent="1" target="2AvNJERpaBlEJEYipWg1-32">
          <mxGeometry width="50" height="50" relative="1" as="geometry">
            <mxPoint x="90" y="570" as="sourcePoint" />
            <mxPoint x="270" y="735" as="targetPoint" />
          </mxGeometry>
        </mxCell>
        <mxCell id="2AvNJERpaBlEJEYipWg1-34" value="Produkte verwalten" style="ellipse;whiteSpace=wrap;html=1;" vertex="1" parent="1">
          <mxGeometry x="260" y="688" width="140" height="51" as="geometry" />
        </mxCell>
        <mxCell id="2AvNJERpaBlEJEYipWg1-35" value="" style="endArrow=classic;html=1;rounded=0;entryX=0;entryY=0.5;entryDx=0;entryDy=0;" edge="1" parent="1" target="2AvNJERpaBlEJEYipWg1-34">
          <mxGeometry width="50" height="50" relative="1" as="geometry">
            <mxPoint x="90" y="570" as="sourcePoint" />
            <mxPoint x="270" y="796" as="targetPoint" />
          </mxGeometry>
        </mxCell>
        <mxCell id="2AvNJERpaBlEJEYipWg1-36" value="Bestellungen verwalten" style="ellipse;whiteSpace=wrap;html=1;" vertex="1" parent="1">
          <mxGeometry x="260" y="747" width="140" height="51" as="geometry" />
        </mxCell>
        <mxCell id="2AvNJERpaBlEJEYipWg1-37" value="" style="endArrow=classic;html=1;rounded=0;entryX=0;entryY=0.5;entryDx=0;entryDy=0;" edge="1" parent="1" target="2AvNJERpaBlEJEYipWg1-36">
          <mxGeometry width="50" height="50" relative="1" as="geometry">
            <mxPoint x="90" y="570" as="sourcePoint" />
            <mxPoint x="270" y="855" as="targetPoint" />
          </mxGeometry>
        </mxCell>
        <mxCell id="2AvNJERpaBlEJEYipWg1-38" value="Kunden verwalten" style="ellipse;whiteSpace=wrap;html=1;" vertex="1" parent="1">
          <mxGeometry x="260" y="807" width="140" height="51" as="geometry" />
        </mxCell>
        <mxCell id="2AvNJERpaBlEJEYipWg1-39" value="" style="endArrow=classic;html=1;rounded=0;entryX=0;entryY=0.5;entryDx=0;entryDy=0;" edge="1" parent="1" target="2AvNJERpaBlEJEYipWg1-38">
          <mxGeometry width="50" height="50" relative="1" as="geometry">
            <mxPoint x="90" y="570" as="sourcePoint" />
            <mxPoint x="270" y="915" as="targetPoint" />
          </mxGeometry>
        </mxCell>
        <mxCell id="2AvNJERpaBlEJEYipWg1-40" value="&amp;lt;&amp;lt;include&amp;gt;&amp;gt;" style="endArrow=open;endSize=12;dashed=1;html=1;rounded=0;exitX=1;exitY=0.5;exitDx=0;exitDy=0;entryX=0;entryY=1;entryDx=0;entryDy=0;" edge="1" parent="1" source="2AvNJERpaBlEJEYipWg1-23" target="2AvNJERpaBlEJEYipWg1-13">
          <mxGeometry width="160" relative="1" as="geometry">
            <mxPoint x="410" y="595" as="sourcePoint" />
            <mxPoint x="600" y="630" as="targetPoint" />
          </mxGeometry>
        </mxCell>
        <mxCell id="2AvNJERpaBlEJEYipWg1-42" value="&amp;lt;&amp;lt;include&amp;gt;&amp;gt;" style="endArrow=open;endSize=12;dashed=1;html=1;rounded=0;exitX=1.014;exitY=0.333;exitDx=0;exitDy=0;entryX=0.261;entryY=0.98;entryDx=0;entryDy=0;entryPerimeter=0;exitPerimeter=0;" edge="1" parent="1" source="2AvNJERpaBlEJEYipWg1-32" target="2AvNJERpaBlEJEYipWg1-13">
          <mxGeometry width="160" relative="1" as="geometry">
            <mxPoint x="420" y="697" as="sourcePoint" />
            <mxPoint x="622" y="652" as="targetPoint" />
          </mxGeometry>
        </mxCell>
        <mxCell id="2AvNJERpaBlEJEYipWg1-43" value="&amp;lt;&amp;lt;include&amp;gt;&amp;gt;" style="endArrow=open;endSize=12;dashed=1;html=1;rounded=0;exitX=1;exitY=0.5;exitDx=0;exitDy=0;entryX=0.408;entryY=1;entryDx=0;entryDy=0;entryPerimeter=0;" edge="1" parent="1" source="2AvNJERpaBlEJEYipWg1-34" target="2AvNJERpaBlEJEYipWg1-13">
          <mxGeometry width="160" relative="1" as="geometry">
            <mxPoint x="412" y="718" as="sourcePoint" />
            <mxPoint x="653" y="573" as="targetPoint" />
          </mxGeometry>
        </mxCell>
        <mxCell id="2AvNJERpaBlEJEYipWg1-44" value="&amp;lt;&amp;lt;include&amp;gt;&amp;gt;" style="endArrow=open;endSize=12;dashed=1;html=1;rounded=0;exitX=0.993;exitY=0.333;exitDx=0;exitDy=0;entryX=0.599;entryY=1.059;entryDx=0;entryDy=0;entryPerimeter=0;exitPerimeter=0;" edge="1" parent="1" source="2AvNJERpaBlEJEYipWg1-36" target="2AvNJERpaBlEJEYipWg1-13">
          <mxGeometry width="160" relative="1" as="geometry">
            <mxPoint x="422" y="828" as="sourcePoint" />
            <mxPoint x="663" y="683" as="targetPoint" />
          </mxGeometry>
        </mxCell>
        <mxCell id="2AvNJERpaBlEJEYipWg1-45" value="&amp;lt;&amp;lt;include&amp;gt;&amp;gt;" style="endArrow=open;endSize=12;dashed=1;html=1;rounded=0;exitX=1.007;exitY=0.373;exitDx=0;exitDy=0;exitPerimeter=0;entryX=0.81;entryY=0.941;entryDx=0;entryDy=0;entryPerimeter=0;" edge="1" parent="1" source="2AvNJERpaBlEJEYipWg1-38" target="2AvNJERpaBlEJEYipWg1-13">
          <mxGeometry width="160" relative="1" as="geometry">
            <mxPoint x="432" y="870" as="sourcePoint" />
            <mxPoint x="700" y="560" as="targetPoint" />
          </mxGeometry>
        </mxCell>
        <mxCell id="2AvNJERpaBlEJEYipWg1-48" value="&lt;font style=&quot;font-size: 14px;&quot;&gt;MacAPPLE&lt;/font&gt;" style="text;html=1;align=center;verticalAlign=middle;whiteSpace=wrap;rounded=0;" vertex="1" parent="1">
          <mxGeometry x="133" y="176" width="85" height="36" as="geometry" />
        </mxCell>
      </root>
    </mxGraphModel>
  </diagram>
</mxfile>
